<?xml version="1.0" encoding="iso-8859-1"?>
<!-- Uploaded to: SVG Repo, www.svgrepo.com, Generator: SVG Repo Mixer Tools -->
<svg fill="#000000" height="800px" width="800px" version="1.1" id="Layer_1" xmlns="http://www.w3.org/2000/svg" xmlns:xlink="http://www.w3.org/1999/xlink" 
	 viewBox="0 0 511.995 511.995" xml:space="preserve">
<g>
	<g>
		<g>
			<path d="M365.661,414.032c-0.576-5.845-5.611-10.155-11.669-9.536c-5.867,0.576-10.133,5.824-9.557,11.669l7.445,74.496h-41.557
				v-53.333c0-29.419-23.936-53.333-53.333-53.333s-53.333,23.915-53.333,53.333v53.333H162.12l14.805-148.352
				c0.576-5.867-3.691-11.093-9.557-11.669c-5.973-0.64-11.072,3.691-11.669,9.536l-16,160.085
				c-0.299,3.008,0.683,5.995,2.709,8.235c2.027,2.219,4.907,3.499,7.915,3.499h213.333c3.008,0,5.888-1.28,7.915-3.499
				c2.027-2.261,3.008-5.227,2.709-8.235L365.661,414.032z M288.989,490.661h-64v-53.333c0-17.643,14.357-32,32-32
				c17.643,0,32,14.357,32,32V490.661z"/>
			<path d="M208.093,60.688l48.896-36.693l53.333,40h-95.104c-5.888,0-10.667,4.779-10.667,10.667s4.779,10.667,10.667,10.667
				h96.107l2.24,22.379c0.555,5.504,5.184,9.6,10.603,9.6c0.363,0,0.725-0.021,1.067-0.064c5.867-0.576,10.133-5.824,9.557-11.669
				l-2.027-20.245h9.557c4.587,0,8.661-2.944,10.112-7.275c1.472-4.373-0.043-9.152-3.712-11.925l-85.333-64
				c-3.797-2.837-9.003-2.837-12.8,0L195.293,43.6c-4.715,3.541-5.675,10.219-2.133,14.933
				C196.68,63.248,203.379,64.208,208.093,60.688z"/>
			<path d="M178.013,235.088c5.419,0,10.069-4.117,10.603-9.6l5.248-52.437c0.576-5.867-3.691-11.093-9.557-11.669
				c-5.931-0.576-11.072,3.691-11.669,9.536l-5.248,52.437c-0.576,5.867,3.691,11.093,9.557,11.669
				C177.309,235.067,177.651,235.088,178.013,235.088z"/>
			<path d="M361.587,184.144l105.6-105.6c4.16-4.16,4.16-10.923,0-15.083l-30.165-30.165c-3.989-4.011-11.072-4.011-15.083,0
				l-105.6,105.6l-34.901,34.901c-0.981,0.981-1.664,2.112-2.197,3.307c-6.507-4.011-14.08-6.443-22.251-6.443
				c-8.405,0-16.213,2.517-22.827,6.741l-30.976-30.955l22.613-22.613c1.984-2.005,3.115-4.715,3.115-7.552
				c0-2.837-1.109-5.547-3.115-7.552l-41.515-41.515c0-0.021-0.021-0.043-0.021-0.064l-2.176-2.176
				c-0.021-0.043-0.085-0.043-0.107-0.085L120.2,3.131c-4.16-4.16-10.923-4.16-15.083,0L74.973,33.296
				c-4.16,4.16-4.16,10.923,0,15.083l144.704,144.704c-3.328,6.037-5.355,12.864-5.355,20.245c0,7.893,2.304,15.189,6.037,21.547
				l-32.256,32.256l-22.613-22.613c-3.989-4.011-11.072-4.011-15.083,0l-105.6,105.6c-4.16,4.16-4.16,10.923,0,15.083l30.165,30.165
				c2.005,1.984,4.715,3.115,7.552,3.115c2.837,0,5.547-1.131,7.531-3.115l90.517-90.517l54.869-54.869
				c6.336,3.755,13.653,6.037,21.547,6.037c7.36,0,14.208-2.048,20.245-5.355l31.552,31.552l-22.635,22.635
				c-4.16,4.16-4.16,10.923,0,15.083l105.6,105.579c2.091,2.069,4.821,3.115,7.552,3.115c2.731,0,5.461-1.045,7.531-3.093
				l30.187-30.165c1.984-2.005,3.115-4.715,3.115-7.552c0-2.837-1.109-5.547-3.115-7.552L292.893,236.155
				c4.224-6.613,6.741-14.421,6.741-22.827c0-8.192-2.432-15.765-6.443-22.251c1.195-0.512,2.325-1.216,3.307-2.197l27.349-27.349
				l22.613,22.613c2.005,1.984,4.715,3.115,7.552,3.115C356.893,187.259,359.603,186.149,361.587,184.144z M97.608,40.827
				l15.104-15.083l54.272,54.272l2.155,2.176c0.021,0.021,0.043,0.021,0.064,0.043l34.027,34.027l-15.104,15.083L97.608,40.827z
				 M165.491,289.744l-82.965,82.965l-15.083-15.083l90.517-90.517l15.083,15.083L165.491,289.744z M256.989,234.661
				c-11.755,0-21.333-9.557-21.333-21.333s9.579-21.333,21.333-21.333c11.755,0,21.333,9.557,21.333,21.333
				S268.744,234.661,256.989,234.661z M331.4,304.827c0.043,0.043,0.085,0.043,0.128,0.085l82.88,82.88l-15.104,15.083
				l-90.517-90.496l15.083-15.083L331.4,304.827z M338.973,146.427l90.517-90.517l15.083,15.083l-90.517,90.517L338.973,146.427z"/>
			<path d="M330.163,192.997c-5.845,0.832-9.899,6.229-9.067,12.053l7.552,53.312c0.768,5.312,5.333,9.173,10.56,9.173
				c0.491,0,0.981-0.043,1.493-0.107c5.845-0.832,9.899-6.229,9.067-12.053l-7.552-53.312
				C341.384,196.24,335.923,192.229,330.163,192.997z"/>
		</g>
	</g>
</g>
</svg>