<svg width="152" height="180" viewBox="0 0 152 180" fill="none" xmlns="http://www.w3.org/2000/svg">
<path d="M114.554 145.559C114.351 143.504 112.581 141.988 110.451 142.206C108.389 142.409 106.889 144.254 107.092 146.308L109.709 172.499H95.099V153.749C95.099 143.406 86.6839 134.999 76.3489 134.999C66.0139 134.999 57.5988 143.406 57.5988 153.749V172.499H42.9958L48.2008 120.343C48.4033 118.281 46.9031 116.443 44.8409 116.241C42.741 116.016 40.9483 117.538 40.7384 119.593L35.1134 175.874C35.0083 176.931 35.3535 177.981 36.0658 178.769C36.7784 179.549 37.7909 179.999 38.8484 179.999H113.849C114.907 179.999 115.919 179.549 116.632 178.769C117.344 177.974 117.689 176.931 117.584 175.874L114.554 145.559ZM87.5987 172.499H65.0984V153.749C65.0984 147.546 70.1459 142.499 76.3486 142.499C82.5512 142.499 87.5987 147.546 87.5987 153.749V172.499Z" fill="black"/>
<path d="M59.1584 21.335L76.3486 8.43503L95.0986 22.4977H61.6633C59.5933 22.4977 57.9132 24.1778 57.9132 26.2478C57.9132 28.3178 59.5933 29.998 61.6633 29.998H95.4513L96.2388 37.8657C96.4339 39.8007 98.0613 41.2407 99.9664 41.2407C100.094 41.2407 100.221 41.2333 100.342 41.2182C102.404 41.0157 103.904 39.1707 103.701 37.1158L102.989 29.9983H106.349C107.961 29.9983 109.394 28.9633 109.904 27.4407C110.421 25.9033 109.889 24.2232 108.599 23.2483L78.5986 0.748044C77.2637 -0.249348 75.4334 -0.249348 74.0985 0.748044L54.6584 15.3275C53.0007 16.5724 52.6632 18.9201 53.9085 20.5774C55.146 22.2351 57.5011 22.5726 59.1584 21.335Z" fill="black"/>
<path d="M48.5833 82.6476C50.4884 82.6476 52.1232 81.2002 52.3109 79.2726L54.1559 60.8375C54.3584 58.7749 52.8583 56.9376 50.796 56.7351C48.7109 56.5326 46.9035 58.0327 46.6936 60.0876L44.8486 78.5227C44.6461 80.5853 46.1462 82.4226 48.2085 82.6251C48.3358 82.6402 48.456 82.6476 48.5833 82.6476Z" fill="black"/>
<path d="M113.122 64.7388L150.247 27.6134C151.71 26.1509 151.71 23.7733 150.247 22.3108L139.642 11.7058C138.24 10.2956 135.749 10.2956 134.339 11.7058L97.214 48.8311L84.944 61.1011C84.5991 61.446 84.359 61.8437 84.1716 62.2638C81.884 60.8536 79.2215 59.9986 76.3489 59.9986C73.394 59.9986 70.649 60.8835 68.3237 62.3685L57.4336 51.4858L65.3836 43.5359C66.0811 42.831 66.4787 41.8782 66.4787 40.8808C66.4787 39.8834 66.0888 38.9307 65.3836 38.2258L50.7883 23.6305C50.7883 23.6232 50.7809 23.6154 50.7809 23.608L50.0159 22.843C50.0085 22.8279 49.986 22.8279 49.9783 22.8132L28.2582 1.10079C26.7957 -0.361722 24.418 -0.361722 22.9555 1.10079L12.3579 11.7058C10.8954 13.1683 10.8954 15.5459 12.3579 17.0084L63.2309 67.8814C62.0609 70.0038 61.3483 72.404 61.3483 74.9989C61.3483 77.7738 62.1583 80.3388 63.4707 82.5741L52.1306 93.9142L44.1806 85.9642C42.7782 84.5541 40.2881 84.5541 38.8779 85.9642L1.75259 123.09C0.290072 124.552 0.290072 126.93 1.75259 128.392L12.3576 138.997C13.0625 139.695 14.0152 140.092 15.0126 140.092C16.01 140.092 16.9627 139.695 17.6602 138.997L49.4829 107.175L68.773 87.8845C71.0005 89.2046 73.5729 90.0069 76.3482 90.0069C78.9357 90.0069 81.3432 89.2869 83.4657 88.1243L94.5583 99.2169L86.6006 107.175C85.138 108.637 85.138 111.015 86.6006 112.477L123.726 149.595C124.461 150.323 125.421 150.69 126.381 150.69C127.341 150.69 128.301 150.323 129.029 149.603L139.641 138.998C140.339 138.293 140.736 137.34 140.736 136.343C140.736 135.346 140.347 134.393 139.641 133.688L88.9712 83.0241C90.4562 80.6992 91.3411 77.9542 91.3411 74.9989C91.3411 72.1189 90.4861 69.4565 89.0759 67.1762C89.4961 66.9962 89.8933 66.7487 90.2386 66.4038L99.8535 56.7888L107.803 64.7388C108.508 65.4363 109.461 65.8339 110.459 65.8339C111.471 65.8339 112.424 65.4437 113.122 64.7388ZM20.3156 14.3534L25.6257 9.05075L44.7059 28.1309L45.4635 28.8959C45.4709 28.9033 45.4786 28.9033 45.486 28.9111L57.4487 40.8738L52.1387 46.1765L20.3156 14.3534ZM44.181 101.864L15.0133 131.032L9.71063 125.729L41.5333 93.9065L46.836 99.2091L44.181 101.864ZM76.3486 82.4989C72.2159 82.4989 68.8486 79.1389 68.8486 74.9989C68.8486 70.8589 72.2162 67.4989 76.3486 67.4989C80.4812 67.4989 83.8485 70.8589 83.8485 74.9989C83.8485 79.1389 80.4812 82.4989 76.3486 82.4989ZM102.509 107.167C102.524 107.182 102.539 107.182 102.554 107.197L131.692 136.335L126.382 141.637L94.559 109.822L99.8616 104.519L102.509 107.167ZM105.171 51.4788L136.994 19.6561L142.297 24.9588L110.474 56.7815L105.171 51.4788Z" fill="black"/>
<path d="M102.074 67.8495C100.019 68.142 98.5939 70.0394 98.8864 72.0869L101.541 90.8296C101.811 92.6971 103.416 94.0545 105.254 94.0545C105.427 94.0545 105.599 94.0394 105.779 94.0169C107.834 93.7244 109.259 91.827 108.966 89.7795L106.311 71.0368C106.019 68.9896 104.099 67.5795 102.074 67.8495Z" fill="black"/>
</svg>
